<svg width="24" height="21" viewBox="0 0 24 21" fill="none" xmlns="http://www.w3.org/2000/svg">
<g id="google-pay-seeklogo.com 1" clip-path="url(#clip0_462_47072)">
<g id="Group">
<path id="Vector" d="M20.9837 4.806C18.7048 3.47188 15.7909 4.26464 14.4739 6.5758L11.1543 12.4079C10.1938 14.092 11.4303 14.6805 12.8092 15.5189L16.0035 17.3887C17.0852 18.0215 18.4668 17.6458 19.0908 16.5502L22.5034 10.5567C23.6498 8.54268 22.9696 5.96874 20.9837 4.806Z" fill="#EA4335"/>
<path id="Vector_2" d="M17.2275 7.21919L14.0332 5.34945C12.2699 4.35672 11.2713 4.29101 10.5473 5.45801L5.8362 13.7327C4.52071 16.0424 5.30381 18.9963 7.58122 20.3276C9.56709 21.4903 12.1051 20.8004 13.2515 18.7863L18.0528 10.3517C18.6796 9.25468 18.3092 7.85198 17.2275 7.21919Z" fill="#FBBC04"/>
<path id="Vector_3" d="M17.8421 2.96526L15.5985 1.65115C13.1169 0.19847 9.94373 1.05979 8.51137 3.57662L4.23961 11.0799C3.60864 12.187 3.98328 13.6039 5.07483 14.2424L7.58746 15.7137C8.82824 16.4407 10.4141 16.0093 11.131 14.7509L16.0112 6.17916C17.0225 4.40366 19.2604 3.79516 21.0111 4.82075L17.8421 2.96526Z" fill="#34A853"/>
<path id="Vector_4" d="M9.11832 5.72374L6.69303 4.30678C5.61134 3.67543 4.2297 4.04967 3.60577 5.14382L0.695967 10.2432C-0.736402 12.7528 0.112878 15.9639 2.59452 17.4123L4.44096 18.4907L6.68034 19.7991L7.65216 20.3662C5.92684 19.1949 5.37896 16.8481 6.43386 14.9997L7.18736 13.6799L9.94648 8.84477C10.569 7.75351 10.1986 6.35509 9.11832 5.72374Z" fill="#4285F4"/>
</g>
</g>
<defs>
<clipPath id="clip0_462_47072">
<rect width="23.1042" height="19.9536" fill="white" transform="translate(0 0.945312)"/>
</clipPath>
</defs>
</svg>
