<svg width="58" height="37" viewBox="0 0 58 37" fill="none" xmlns="http://www.w3.org/2000/svg">
<g id="Payment icon" clip-path="url(#clip0_232_20858)">
<path id="Vector" d="M53.3337 0.339844H5.26855C2.7151 0.339844 0.762451 2.29249 0.762451 4.84595V31.8826C0.762451 34.436 2.8653 36.3887 5.26855 36.3887H53.3337C55.8871 36.3887 57.8398 34.436 57.8398 31.8826V4.84595C57.8398 2.29249 55.7369 0.339844 53.3337 0.339844Z" fill="#DEDEDE"/>
<path id="Vector_2" d="M53.3336 1.8418C54.9859 1.8418 56.3377 3.19363 56.3377 4.84587V31.8825C56.3377 33.5347 54.9859 34.8866 53.3336 34.8866H5.26853C3.6163 34.8866 2.26447 33.5347 2.26447 31.8825V4.84587C2.26447 3.19363 3.6163 1.8418 5.26853 1.8418H53.3336Z" fill="#006FCF"/>
<path id="Vector_3" d="M14.2372 15.7621L15.3998 18.5799H13.0836L14.2372 15.7621ZM38.3824 15.8792H33.9108V17.1214H38.3103V18.9824H33.9198V20.3673H38.3914V21.4773L41.5111 18.1053L38.3914 14.5905L38.3824 15.8792ZM17.2593 12.3645H23.2599L24.5922 15.2709L25.8269 12.3555H41.403L43.0222 14.1429L44.6969 12.3555H51.8511L46.5655 18.1413L51.7971 23.8911H44.5362L42.917 22.1037L41.2272 23.8911H15.8278L15.0858 22.1037H13.3885L12.645 23.8911H6.77057L11.7063 12.3555H16.8582L17.2593 12.3645ZM30.2714 13.9837H26.9083L24.6553 19.2949L22.2145 13.9837H18.877V21.2085L15.7828 13.9837H12.7892L9.21137 22.2629H11.547L12.289 20.4755H16.1883L16.9303 22.2629H21.0159V16.3524L23.6459 22.2719H25.4333L28.0469 16.3704V22.2734H30.2369L30.2729 13.9822L30.2714 13.9837ZM44.3004 18.1413L48.1021 13.9837H45.3653L42.9606 16.5762L40.6354 13.9837H31.7824V22.2719H40.5093L42.9336 19.6614L45.2587 22.2719H48.075L44.3019 18.1413H44.3004Z" fill="white"/>
</g>
<defs>
<clipPath id="clip0_232_20858">
<rect width="57.0773" height="36.0488" fill="white" transform="translate(0.762451 0.339844)"/>
</clipPath>
</defs>
</svg>
