<svg width="208" height="213" viewBox="0 0 208 213" fill="none" xmlns="http://www.w3.org/2000/svg">
<g id="bags" clip-path="url(#clip0_189_4968)">
<g id="bags_2">
<g id="bags_3">
<g id="Group">
<g id="Group_2">
<path id="Vector" d="M89.3681 69.0851L87.515 69.0038C87.6254 66.4761 88.7353 44.1899 93.6133 40.1244C93.9231 39.8476 94.2885 39.6402 94.6848 39.516C95.0812 39.3919 95.4995 39.3539 95.9117 39.4046C98.8158 39.8091 101.987 44.4171 105.607 53.4922C108.184 59.9535 110.042 66.3961 110.06 66.4604L108.278 66.9728C108.259 66.9092 106.423 60.5446 103.88 54.1685C99.3874 42.9107 96.6323 41.3791 95.6563 41.2433C95.4996 41.2263 95.3412 41.2452 95.1929 41.2984C95.0446 41.3517 94.9104 41.438 94.8003 41.5508C91.2009 44.5503 89.6587 62.4435 89.3681 69.0851Z" fill="black"/>
<path id="Vector_2" d="M72.9962 57.0607L71.1411 103.611L132.349 97.0134L124.783 52.0703L72.9962 57.0607Z" fill="#FFBA49"/>
</g>
<path id="Vector_3" d="M124.783 52.0703L120.28 52.5041L126.272 91.9146L71.3555 98.2377L71.1411 103.611L132.349 97.0134L124.783 52.0703Z" fill="#FFA113"/>
</g>
<g id="Group_3">
<path id="Vector_4" d="M157.85 132.114L155.304 131.831C155.326 131.631 157.44 111.717 150.585 104.271C149.779 103.365 148.779 102.653 147.66 102.189C146.54 101.725 145.33 101.521 144.121 101.591C129.189 102.016 122.168 127.659 122.099 127.917L119.625 127.256C121.004 122.467 122.919 117.85 125.335 113.492C130.537 104.231 137.008 99.2297 144.048 99.0295C145.624 98.9487 147.198 99.2216 148.656 99.8283C150.113 100.435 151.416 101.36 152.47 102.536C160.113 110.841 157.946 131.249 157.85 132.114Z" fill="#FFBA49"/>
<path id="Vector_5" d="M112.428 113.852L166.458 120.264L165.62 205.998L93.4967 197.402L112.428 113.852Z" fill="#DB3022"/>
<path id="Vector_6" d="M166.458 120.264L161.107 119.629L158.501 198.957L94.5126 192.919L93.4967 197.403L165.62 205.999L166.458 120.264Z" fill="#D10505"/>
</g>
<path id="Vector_7" d="M179.999 147.509C182.46 148.025 184.804 146.057 185.235 143.109C185.694 143.893 186.153 144.678 186.612 145.464C186.181 148.411 183.835 150.38 181.378 149.864C180.919 149.078 180.459 148.294 179.999 147.509Z" fill="#FFBA49"/>
<path id="Vector_8" d="M107.332 210.564C109.793 211.08 112.137 209.111 112.568 206.164C113.027 206.948 113.486 207.733 113.945 208.518C113.515 211.465 111.169 213.435 108.711 212.919C108.252 212.133 107.792 211.348 107.332 210.564Z" fill="#9B9B9B"/>
<path id="Vector_9" d="M185.494 98.1699C186.526 100.894 189.205 102.104 191.481 100.868C191.199 101.766 190.917 102.663 190.634 103.56C188.358 104.794 185.679 103.585 184.648 100.86C184.932 99.9644 185.214 99.0677 185.494 98.1699Z" fill="#FF5C00"/>
<path id="Vector_10" d="M169.571 78.8203C169.987 75.8693 168.327 73.0751 165.864 72.578C166.515 72.0219 167.167 71.4659 167.82 70.9102C170.282 71.4073 171.942 74.2026 171.528 77.1525C170.876 77.7087 170.224 78.2646 169.571 78.8203Z" fill="#021193"/>
<path id="Vector_11" d="M21.7077 66.9101C22.123 63.9591 20.4636 61.1648 18 60.6677C18.6515 60.1116 19.3035 59.5557 19.9563 59C22.418 59.497 24.0783 62.2923 23.664 65.2423C23.0125 65.7984 22.3604 66.3543 21.7077 66.9101Z" fill="#FF5C00"/>
<path id="Vector_12" d="M72.0943 171.475C72.5097 168.524 70.8502 165.729 68.3867 165.232C69.0381 164.676 69.6902 164.12 70.3429 163.564C72.8046 164.061 74.4649 166.857 74.0506 169.807C73.3991 170.363 72.747 170.919 72.0943 171.475Z" fill="#FF5C00"/>
<path id="Vector_13" d="M201.332 60.8891C203.776 61.506 206.174 59.6326 206.688 56.7031C207.126 57.5057 207.563 58.309 208 59.1128C207.486 62.0394 205.087 63.914 202.644 63.2988C202.206 62.4962 201.769 61.6929 201.332 60.8891Z" fill="#FFBA49"/>
<path id="Vector_14" d="M5.82079 97.1425C4.94465 94.3397 2.33935 92.9184 0 93.9693C0.330918 93.0979 0.662322 92.2254 0.994215 91.3517C3.33162 90.302 5.93838 91.7221 6.815 94.5238C6.4841 95.3963 6.15269 96.2692 5.82079 97.1425Z" fill="#FFBA49"/>
<path id="Vector_15" d="M66.534 131.279C66.7066 134.264 68.8667 136.516 71.3578 136.308C70.8324 137.033 70.3062 137.754 69.7818 138.479C67.2898 138.684 65.1306 136.432 64.9581 133.447C65.4834 132.726 66.0087 132.003 66.534 131.279Z" fill="#DB3022"/>
<path id="Vector_16" d="M48.9286 77.0537C51.4026 76.6424 53.1294 73.9054 52.7851 70.9414C53.4242 71.5202 54.0624 72.0983 54.6997 72.6756C55.0429 75.6409 53.3171 78.3761 50.8431 78.7891C50.2058 78.2102 49.5677 77.6317 48.9286 77.0537Z" fill="#021193"/>
<path id="Vector_17" d="M149.812 40.707C146.604 40.8132 148.91 46.4659 145.701 46.5744C145.088 45.9581 144.476 45.3417 143.862 44.7254C147.071 44.6186 144.765 38.9658 147.973 38.8574C148.587 39.4738 149.199 40.0903 149.812 40.707Z" fill="#FF5C00"/>
<path id="Vector_18" d="M155.642 189.279C152.519 188.393 153.531 194.567 150.407 193.682C149.947 192.897 149.488 192.111 149.029 191.326C152.152 192.213 151.139 186.039 154.264 186.925C154.723 187.71 155.182 188.495 155.642 189.279Z" fill="#FFBA49"/>
<path id="Vector_19" d="M62.7805 197.314C60.575 200.109 65.5419 202.157 63.3362 204.949C62.5397 205.031 61.7422 205.116 60.9457 205.197C63.1513 202.404 58.1844 200.359 60.39 197.564C61.1875 197.483 61.9843 197.399 62.7805 197.314Z" fill="#021193"/>
<path id="Vector_20" d="M134.225 4.35543C131.085 5.15464 134.202 10.2195 131.063 11.017C130.369 10.5421 129.671 10.069 128.977 9.59292C132.116 8.79589 128.998 3.73285 132.138 2.93359C132.834 3.40963 133.53 3.88357 134.225 4.35543Z" fill="#DB3022"/>
<path id="Vector_21" d="M33.4438 21.0039C34.9885 24.3758 38.1371 19.3395 39.6794 22.7103C39.5003 23.6436 39.3234 24.5804 39.1432 25.5142C37.6009 22.1423 34.4542 27.1802 32.9095 23.8083C33.0891 22.8722 33.2672 21.9374 33.4438 21.0039Z" fill="#9B9B9B"/>
<path id="Vector_22" d="M6.81506 153.584C7.22939 153.509 7.60424 153.291 7.87417 152.967C8.1441 152.644 8.29197 152.236 8.29197 151.814C8.29197 151.393 8.1441 150.985 7.87417 150.662C7.60424 150.338 7.22939 150.12 6.81506 150.045" fill="black"/>
<path id="Vector_23" d="M174.448 16.8658C173.098 16.8658 172 15.5501 172 13.9328C172 12.3156 173.098 11 174.448 11C175.798 11 176.896 12.3156 176.896 13.9329C176.896 15.5501 175.798 16.8658 174.448 16.8658ZM174.448 12.1634C174.019 12.2058 173.624 12.415 173.348 12.7459C173.072 13.0768 172.936 13.5031 172.971 13.9329C172.932 14.1493 172.941 14.3716 172.997 14.5842C173.053 14.7968 173.155 14.9945 173.296 15.1633C173.437 15.332 173.613 15.4678 173.812 15.561C174.011 15.6541 174.228 15.7024 174.448 15.7024C174.668 15.7024 174.885 15.6541 175.084 15.561C175.283 15.4678 175.459 15.332 175.6 15.1633C175.741 14.9945 175.843 14.7968 175.899 14.5842C175.955 14.3716 175.964 14.1493 175.925 13.9329C175.959 13.5031 175.824 13.0768 175.548 12.7459C175.272 12.415 174.877 12.2058 174.448 12.1634Z" fill="black"/>
<path id="Vector_24" d="M31.9474 127.985C30.5976 127.985 29.4995 126.669 29.4995 125.052C29.4995 123.435 30.5976 122.119 31.9474 122.119C33.2971 122.119 34.3953 123.435 34.3953 125.052C34.3953 126.669 33.2972 127.985 31.9474 127.985ZM31.9474 123.283C31.533 123.358 31.1582 123.576 30.8883 123.899C30.6183 124.223 30.4705 124.631 30.4705 125.052C30.4705 125.473 30.6183 125.881 30.8883 126.205C31.1582 126.528 31.533 126.746 31.9474 126.821C32.3617 126.746 32.7365 126.528 33.0065 126.205C33.2764 125.881 33.4243 125.473 33.4243 125.052C33.4243 124.631 33.2764 124.223 33.0065 123.899C32.7365 123.576 32.3617 123.358 31.9474 123.283Z" fill="black"/>
</g>
</g>
</g>
<defs>
<clipPath id="clip0_189_4968">
<rect width="208" height="213" fill="white"/>
</clipPath>
</defs>
</svg>
