<svg width="26" height="24" viewBox="0 0 26 24" fill="none" xmlns="http://www.w3.org/2000/svg">
<path d="M9.88112 22.9995C10.4597 22.9995 10.9287 22.5305 10.9287 21.9519C10.9287 21.3733 10.4597 20.9043 9.88112 20.9043C9.30253 20.9043 8.8335 21.3733 8.8335 21.9519C8.8335 22.5305 9.30253 22.9995 9.88112 22.9995Z" stroke="black" stroke-width="1.5" stroke-linecap="round" stroke-linejoin="round"/>
<path d="M21.4046 22.9995C21.9831 22.9995 22.4522 22.5305 22.4522 21.9519C22.4522 21.3733 21.9831 20.9043 21.4046 20.9043C20.826 20.9043 20.3569 21.3733 20.3569 21.9519C20.3569 22.5305 20.826 22.9995 21.4046 22.9995Z" stroke="black" stroke-width="1.5" stroke-linecap="round" stroke-linejoin="round"/>
<path d="M1.5 1H5.69048L8.49809 15.0276C8.59389 15.5099 8.85628 15.9432 9.23933 16.2515C9.62238 16.5599 10.1017 16.7237 10.5933 16.7143H20.7762C21.2678 16.7237 21.7471 16.5599 22.1302 16.2515C22.5132 15.9432 22.7756 15.5099 22.8714 15.0276L24.5476 6.23809H6.73809" stroke="black" stroke-width="1.5" stroke-linecap="round" stroke-linejoin="round"/>
</svg>
