<svg width="104" height="41" viewBox="0 0 104 41" fill="none" xmlns="http://www.w3.org/2000/svg">
<path d="M103.729 31.5488H80.8833C78.0447 31.5488 75.7437 33.666 75.7437 36.2779C75.7437 38.8897 78.0447 41.0069 80.8833 41.0069H98.5891C101.428 41.0069 103.729 38.8897 103.729 36.2779V31.5488Z" fill="black"/>
<path d="M81.8614 38.392C81.7846 38.4627 81.6908 38.4968 81.5798 38.4968C81.4689 38.4968 81.375 38.4627 81.2983 38.392C81.2215 38.3212 81.1816 38.2347 81.1816 38.1325C81.1816 38.0303 81.2215 37.9438 81.2983 37.8731C81.375 37.8023 81.4689 37.7656 81.5798 37.7656C81.6908 37.7656 81.7846 37.7997 81.8614 37.8731C81.9382 37.9438 81.978 38.0303 81.978 38.1325C81.9752 38.2347 81.9382 38.3212 81.8614 38.392Z" fill="white"/>
<path d="M84.9961 38.5107C84.231 38.5107 83.5967 38.2778 83.0961 37.812C82.5955 37.3461 82.3452 36.7782 82.3452 36.103C82.3452 35.4278 82.5955 34.8599 83.0961 34.3941C83.5967 33.9282 84.231 33.6953 84.9961 33.6953C85.4626 33.6953 85.8921 33.7974 86.2817 34.0041C86.6714 34.2109 86.9729 34.4883 87.1834 34.839L86.7368 35.0771C86.5775 34.7945 86.3415 34.5668 86.0286 34.3993C85.7157 34.2318 85.3715 34.1481 84.9961 34.1481C84.3647 34.1481 83.8499 34.3365 83.4488 34.7134C83.0478 35.0902 82.8487 35.5534 82.8487 36.103C82.8487 36.6526 83.0478 37.1158 83.4488 37.4927C83.8499 37.8695 84.3647 38.058 84.9961 38.058C85.3715 38.058 85.7157 37.9742 86.0286 37.8067C86.3415 37.6392 86.5775 37.4142 86.7368 37.1289L87.1834 37.3618C86.9757 37.7125 86.6771 37.9925 86.2846 38.1993C85.8921 38.406 85.4626 38.5107 84.9961 38.5107Z" fill="white"/>
<path d="M92.1977 37.808C91.6914 38.2765 91.0742 38.5094 90.3404 38.5094C89.6066 38.5094 88.9893 38.2765 88.4831 37.808C87.9768 37.3396 87.7236 36.7717 87.7236 36.1043C87.7236 35.4343 87.9768 34.8664 88.4831 34.4006C88.9893 33.9321 89.6066 33.6992 90.3404 33.6992C91.0742 33.6992 91.6914 33.9321 92.1977 34.4006C92.704 34.8691 92.9571 35.437 92.9571 36.1043C92.9571 36.7717 92.704 37.3396 92.1977 37.808ZM88.8386 37.4887C89.2425 37.8682 89.7431 38.0566 90.3404 38.0566C90.9377 38.0566 91.4383 37.8682 91.8422 37.4887C92.2461 37.1093 92.448 36.6487 92.448 36.1017C92.448 35.5573 92.2461 35.0941 91.8422 34.7146C91.4383 34.3352 90.9348 34.1467 90.3404 34.1467C89.7431 34.1467 89.2425 34.3352 88.8386 34.7146C88.4347 35.0941 88.2328 35.5547 88.2328 36.1017C88.2328 36.6487 88.4347 37.1093 88.8386 37.4887Z" fill="white"/>
<path d="M98.4467 33.7773V38.4305H97.9404V34.484L96.1713 37.2109H96.1002L94.331 34.484V38.4331H93.8247V33.7773H94.4448L96.1371 36.3813L97.8295 33.7773H98.4467Z" fill="white"/>
<path d="M12.9416 11.75V15.673H8.67798V27.6252H4.26362V15.673H0V11.75H12.9416Z" fill="#E72128"/>
<path d="M26.1161 26.4455C24.8419 27.4583 23.2036 27.9661 21.1983 27.9661C19.1931 27.9661 17.5548 27.4583 16.2805 26.4455C15.0063 25.4327 14.3691 24.0876 14.3691 22.4074V11.748H18.7807V22.0227C18.7807 23.3548 19.5856 24.0195 21.1955 24.0195C22.8054 24.0195 23.6103 23.3548 23.6103 22.0227V11.748H28.0218V22.4074C28.0275 24.0849 27.3904 25.4327 26.1161 26.4455Z" fill="#E72128"/>
<path d="M39.5649 27.6232L36.5585 22.4964H34.9799V27.6232H30.5684V11.748H37.4715C39.2293 11.748 40.7055 12.2662 41.8972 13.3026C43.089 14.339 43.6835 15.6501 43.6835 17.2387C43.6835 18.1913 43.4218 19.0654 42.8956 19.8584C42.3694 20.6513 41.6555 21.2847 40.751 21.7531L44.3007 27.6258H39.5649V27.6232ZM34.9799 15.4905V19.0523H37.4203C37.9636 19.068 38.4073 18.9084 38.7514 18.576C39.0956 18.2436 39.2691 17.8118 39.2691 17.2832C39.2691 16.7545 39.0956 16.3227 38.7514 15.9903C38.4073 15.658 37.9636 15.4905 37.4203 15.4905H34.9799Z" fill="#E72128"/>
<path d="M60.1489 27.6232H55.2197L50.2621 20.5074V27.6232H45.8506V11.748H50.2621V18.4242L54.9694 11.748H59.8986L54.429 19.4606L60.1489 27.6232Z" fill="#E72128"/>
<path d="M65.8173 23.8128H72.4985V27.6232H61.4058V11.748H72.3762V15.535H65.8173V17.7359H71.759V21.4783H65.8173V23.8128Z" fill="#E72128"/>
<path d="M89.2825 11.7487L83.4659 21.5235V27.6239H79.0544V21.568L73.2378 11.7461H78.1926L81.2502 17.6214L84.3306 11.7461H89.2825V11.7487Z" fill="#E72128"/>
<path d="M99.1868 27.6239L98.3591 25.334H92.4856L91.7404 27.6239H86.9648L92.4629 11.7461H98.0178L103.726 27.6239H99.1868ZM93.6205 21.8428H97.0963L95.347 16.4437L93.6205 21.8428Z" fill="#E72128"/>
<path d="M7.16765 0.773438V7.82122H6.16077V2.31489L3.65493 6.15153L3.52978 6.14629L1.01826 2.30966V7.82122H0V0.773438H1.1491L3.60089 4.51586L6.02993 0.773438H7.16765Z" fill="#222222"/>
<path d="M13.8548 7.82122L13.2291 6.24051H9.78462L9.15888 7.82122H8.0752L10.9309 0.773438H12.08L14.9357 7.82122H13.8548ZM10.1316 5.36379H12.8849L11.5083 1.88308L10.1316 5.36379Z" fill="#222222"/>
<path d="M16.864 6.93665H20.1691V7.82384H15.8457V0.773438H16.864V6.93665Z" fill="#222222"/>
<path d="M22.2028 6.93665H25.5079V7.82384H21.1846V0.773438H22.2028V6.93665Z" fill="#222222"/>
<path d="M35.6363 6.88497C34.8655 7.59681 33.9269 7.95274 32.8176 7.95274C31.7083 7.95274 30.7725 7.59681 30.0046 6.88497C29.2395 6.17312 28.8555 5.31211 28.8555 4.29668C28.8555 3.27602 29.2395 2.41239 30.0046 1.70316C30.7697 0.99393 31.7083 0.640625 32.8176 0.640625C33.9269 0.640625 34.8655 0.99393 35.6363 1.70316C36.4071 2.41239 36.7911 3.27602 36.7911 4.29668C36.7911 5.31211 36.4043 6.17312 35.6363 6.88497ZM30.71 6.2464C31.276 6.77243 31.9785 7.03676 32.8176 7.03676C33.6567 7.03676 34.3592 6.77243 34.9252 6.2464C35.4912 5.72037 35.7728 5.06872 35.7728 4.29668C35.7728 3.51941 35.4912 2.86514 34.9252 2.33911C34.3592 1.81308 33.6567 1.54875 32.8176 1.54875C31.9785 1.54875 31.276 1.81046 30.71 2.33911C30.1439 2.86514 29.8624 3.51941 29.8624 4.29668C29.8624 5.06872 30.1468 5.72037 30.71 6.2464Z" fill="#222222"/>
<path d="M42.4257 1.65801H39.0324V3.94272H42.2835V4.8299H39.0324V7.82122H38.0142V0.773438H42.4228V1.65801H42.4257Z" fill="#222222"/>
</svg>
