<svg width="58" height="37" viewBox="0 0 58 37" fill="none" xmlns="http://www.w3.org/2000/svg">
<g id="Payment icon" clip-path="url(#clip0_232_20854)">
<path id="Vector" d="M53.1587 0.339844H5.09357C2.54011 0.339844 0.587463 2.29249 0.587463 4.84595V31.8826C0.587463 34.436 2.69031 36.3887 5.09357 36.3887H53.1587C55.7121 36.3887 57.6648 34.436 57.6648 31.8826V4.84595C57.6648 2.29249 55.5619 0.339844 53.1587 0.339844Z" fill="#DEDEDE"/>
<path id="Vector_2" d="M53.1586 1.8418C54.8109 1.8418 56.1627 3.19363 56.1627 4.84587V31.8825C56.1627 33.5347 54.8109 34.8866 53.1586 34.8866H5.09355C3.44131 34.8866 2.08948 33.5347 2.08948 31.8825V4.84587C2.08948 3.19363 3.44131 1.8418 5.09355 1.8418H53.1586Z" fill="white"/>
<path id="Vector_3" d="M23.118 28.8781C28.9249 28.8781 33.6322 24.1707 33.6322 18.3639C33.6322 12.557 28.9249 7.84961 23.118 7.84961C17.3111 7.84961 12.6038 12.557 12.6038 18.3639C12.6038 24.1707 17.3111 28.8781 23.118 28.8781Z" fill="#EB001B"/>
<path id="Vector_4" d="M35.1342 28.8781C40.9411 28.8781 45.6485 24.1707 45.6485 18.3639C45.6485 12.557 40.9411 7.84961 35.1342 7.84961C29.3274 7.84961 24.62 12.557 24.62 18.3639C24.62 24.1707 29.3274 28.8781 35.1342 28.8781Z" fill="#F79E1B"/>
<path id="Vector_5" d="M33.6322 18.3663C33.6322 14.7614 31.8298 11.6071 29.1261 9.80469C26.4224 11.7573 24.62 14.9116 24.62 18.3663C24.62 21.821 26.4224 25.1254 29.1261 26.9279C31.8298 25.1254 33.6322 21.9712 33.6322 18.3663Z" fill="#FF5F00"/>
</g>
<defs>
<clipPath id="clip0_232_20854">
<rect width="57.0773" height="36.0488" fill="white" transform="translate(0.587463 0.339844)"/>
</clipPath>
</defs>
</svg>
