<svg width="27" height="24" viewBox="0 0 27 24" fill="none" xmlns="http://www.w3.org/2000/svg">
<path d="M17.7433 22.5C18.7986 22.5 19.6541 21.7165 19.6541 20.75C19.6541 19.7835 18.7986 19 17.7433 19C16.688 19 15.8325 19.7835 15.8325 20.75C15.8325 21.7165 16.688 22.5 17.7433 22.5Z" fill="white"/>
<path d="M9.00822 22.5C10.0635 22.5 10.919 21.7165 10.919 20.75C10.919 19.7835 10.0635 19 9.00822 19C7.95291 19 7.09741 19.7835 7.09741 20.75C7.09741 21.7165 7.95291 22.5 9.00822 22.5Z" fill="white"/>
<path d="M5.28464 3.94L5.06626 6.39C5.02258 6.86 5.42658 7.25 5.93977 7.25H22.6566C23.1152 7.25 23.4974 6.93 23.5302 6.51C23.6721 4.74 22.198 3.3 20.2654 3.3H6.84604C6.73685 2.86 6.51848 2.44 6.17999 2.09C5.63404 1.56 4.86972 1.25 4.08356 1.25H2.18367C1.73599 1.25 1.36475 1.59 1.36475 2C1.36475 2.41 1.73599 2.75 2.18367 2.75H4.08356C4.42204 2.75 4.73869 2.88 4.96799 3.1C5.19729 3.33 5.30648 3.63 5.28464 3.94Z" fill="white"/>
<path d="M22.3946 8.75H5.645C5.18641 8.75 4.81516 9.07 4.77149 9.48L4.37841 13.83C4.22554 15.54 5.68868 17 7.55581 17H19.6977C21.3355 17 22.7768 15.77 22.8969 14.27L23.2572 9.6C23.3009 9.14 22.9078 8.75 22.3946 8.75Z" fill="white"/>
</svg>
