<svg width="58" height="37" viewBox="0 0 58 37" fill="none" xmlns="http://www.w3.org/2000/svg">
<g id="Payment icon" clip-path="url(#clip0_232_20853)">
<path id="Vector" d="M52.5712 0.339844H4.5061C1.95264 0.339844 0 2.29249 0 4.84595V31.8826C0 34.436 2.10285 36.3887 4.5061 36.3887H52.5712C55.1247 36.3887 57.0773 34.436 57.0773 31.8826V4.84595C57.0773 2.29249 54.9745 0.339844 52.5712 0.339844Z" fill="#DEDEDE"/>
<path id="Vector_2" d="M52.5712 1.8418C54.2234 1.8418 55.5753 3.19363 55.5753 4.84587V31.8825C55.5753 33.5347 54.2234 34.8866 52.5712 34.8866H4.50608C2.85385 34.8866 1.50201 33.5347 1.50201 31.8825V4.84587C1.50201 3.19363 2.85385 1.8418 4.50608 1.8418H52.5712Z" fill="white"/>
<path id="Vector_3" d="M42.5076 15.5097H42.057C41.4562 17.0118 41.0056 17.7628 40.555 20.0158H43.4088C42.9582 17.7628 42.9582 16.7114 42.5076 15.5097ZM46.8635 24.3717H44.31C44.1598 24.3717 44.1598 24.3717 44.0096 24.2215L43.7092 22.8697L43.559 22.5693H39.9541C39.8039 22.5693 39.6537 22.5693 39.6537 22.8697L39.2031 24.2215C39.2031 24.3717 39.0529 24.3717 39.0529 24.3717H35.8986L36.1991 23.6207L40.555 13.4069C40.555 12.6559 41.0056 12.3555 41.7566 12.3555H44.0096C44.1598 12.3555 44.31 12.3555 44.31 12.6559L46.4129 22.4191C46.5631 23.0199 46.7133 23.4705 46.7133 24.0713C46.8635 24.2215 46.8635 24.2215 46.8635 24.3717ZM26.7362 23.9211L27.337 21.2175C27.4873 21.2175 27.6375 21.3677 27.6375 21.3677C28.6889 21.8183 29.7403 22.1187 30.7917 21.9685C31.0921 21.9685 31.5427 21.8183 31.8432 21.6681C32.5942 21.3677 32.5942 20.6167 31.9934 20.0158C31.6929 19.7154 31.2423 19.5652 30.7917 19.2648C30.1909 18.9644 29.5901 18.664 29.1395 18.2134C27.337 16.7114 27.9379 14.6085 28.9893 13.5571C29.8905 12.9563 30.3411 12.3555 31.5427 12.3555C33.3452 12.3555 35.2978 12.3555 36.1991 12.6559H36.3493C36.1991 13.5571 36.0488 14.3081 35.7484 15.2093C34.9974 14.9089 34.2464 14.6085 33.4954 14.6085C33.0448 14.6085 32.5942 14.6085 32.1436 14.7587C31.8431 14.7587 31.6929 14.9089 31.5427 15.0591C31.2423 15.3595 31.2423 15.8101 31.5427 16.1106L32.2938 16.7114C32.8946 17.0118 33.4954 17.3122 33.946 17.6126C34.697 18.0632 35.448 18.8142 35.5982 19.7154C35.8986 21.0673 35.448 22.2689 34.2464 23.1701C33.4954 23.7709 33.195 24.0713 32.1436 24.0713C30.0407 24.0713 28.3885 24.2215 27.0366 23.7709C26.8864 24.0713 26.8864 24.0713 26.7362 23.9211ZM21.4791 24.3717C21.6293 23.3203 21.6293 23.3203 21.7795 22.8697C22.5305 19.5652 23.2816 16.1106 23.8824 12.8061C24.0326 12.5057 24.0326 12.3555 24.333 12.3555H27.0366C26.7362 14.1579 26.4358 15.5097 25.9852 17.162C25.5346 19.415 25.084 21.6681 24.4832 23.9211C24.4832 24.2215 24.333 24.2215 24.0326 24.2215L21.4791 24.3717ZM7.51019 12.6559C7.51019 12.5057 7.8106 12.3555 7.9608 12.3555H13.0677C13.8187 12.3555 14.4196 12.8061 14.5698 13.5571L15.9216 20.166C15.9216 20.3163 15.9216 20.3163 16.0718 20.4665C16.0718 20.3163 16.222 20.3163 16.222 20.3163L19.3763 12.6559C19.2261 12.5057 19.3763 12.3555 19.5265 12.3555H22.6807C22.6807 12.5057 22.6807 12.5057 22.5305 12.6559L17.8742 23.6207C17.724 23.9211 17.724 24.0713 17.5738 24.2215C17.4236 24.3717 17.1232 24.2215 16.8228 24.2215H14.5698C14.4196 24.2215 14.2693 24.2215 14.2693 23.9211L11.8661 14.6085C11.5657 14.3081 11.1151 13.8575 10.5143 13.7073C9.61304 13.2567 7.9608 12.9563 7.6604 12.9563L7.51019 12.6559Z" fill="#142688"/>
</g>
<defs>
<clipPath id="clip0_232_20853">
<rect width="57.0773" height="36.0488" fill="white" transform="translate(0 0.339844)"/>
</clipPath>
</defs>
</svg>
