<svg width="25" height="25" viewBox="0 0 25 25" fill="none" xmlns="http://www.w3.org/2000/svg">
<path d="M16.9213 14.7027C16.7213 14.6027 15.4213 14.0027 15.2213 13.9027C15.0213 13.8027 14.8213 13.8027 14.6213 14.0027C14.4213 14.2027 14.0213 14.8027 13.8213 15.0027C13.7213 15.2027 13.5213 15.2027 13.3213 15.1027C12.6213 14.8027 11.9213 14.4027 11.3213 13.9027C10.8213 13.4027 10.3213 12.8027 9.92129 12.2027C9.82129 12.0027 9.92129 11.8027 10.0213 11.7027C10.1213 11.6027 10.2213 11.4027 10.4213 11.3027C10.5213 11.2027 10.6213 11.0027 10.6213 10.9027C10.7213 10.8027 10.7213 10.6027 10.6213 10.5027C10.5213 10.4027 10.0213 9.20273 9.82129 8.70273C9.72129 8.00273 9.52129 8.00273 9.32129 8.00273H8.82129C8.62129 8.00273 8.32129 8.20273 8.22129 8.30273C7.62129 8.90273 7.32129 9.60273 7.32129 10.4027C7.42129 11.3027 7.72129 12.2027 8.32129 13.0027C9.42129 14.6027 10.8213 15.9027 12.5213 16.7027C13.0213 16.9027 13.4213 17.1027 13.9213 17.2027C14.4213 17.4027 14.9213 17.4027 15.5213 17.3027C16.2213 17.2027 16.8213 16.7027 17.2213 16.1027C17.4213 15.7027 17.4213 15.3027 17.3213 14.9027L16.9213 14.7027ZM19.4213 5.60273C15.5213 1.70273 9.22129 1.70273 5.32129 5.60273C2.12129 8.80273 1.52129 13.7027 3.72129 17.6027L2.32129 22.7027L7.62129 21.3027C9.12129 22.1027 10.7213 22.5027 12.3213 22.5027C17.8213 22.5027 22.2213 18.1027 22.2213 12.6027C22.3213 10.0027 21.2213 7.50273 19.4213 5.60273ZM16.7213 19.6027C15.4213 20.4027 13.9213 20.9027 12.3213 20.9027C10.8213 20.9027 9.42129 20.5027 8.12129 19.8027L7.82129 19.6027L4.72129 20.4027L5.52129 17.4027L5.32129 17.1027C2.92129 13.1027 4.12129 8.10273 8.02129 5.60273C11.9213 3.10273 16.9213 4.40273 19.3213 8.20273C21.7213 12.1027 20.6213 17.2027 16.7213 19.6027Z" fill="white"/>
</svg>
