<svg width="30" height="30" viewBox="0 0 30 30" fill="none" xmlns="http://www.w3.org/2000/svg">
<path d="M24.434 11.2283L24.435 11.2293C26.5765 13.3593 26.5751 16.8155 24.4359 18.9318L24.434 18.9337L18.9475 24.4203C18.9473 24.4205 18.947 24.4207 18.9468 24.4209C16.8038 26.5518 13.3451 26.5502 11.2161 24.4212L5.55364 18.7587C4.46707 17.6721 3.89347 16.172 3.96206 14.6354C3.96207 14.6351 3.96208 14.6349 3.96209 14.6346L4.26196 8.38735C4.26197 8.38717 4.26198 8.38699 4.26199 8.38681C4.37434 6.15632 6.15587 4.37513 8.39757 4.27425L8.39906 4.27418L14.6491 3.97419L14.6512 3.97408C16.1828 3.89407 17.6829 4.47714 18.7715 5.56581L24.434 11.2283ZM7.77509 11.8748C7.77509 14.1395 9.62508 15.9748 11.8751 15.9748C14.1251 15.9748 15.9751 14.1395 15.9751 11.8748C15.9751 9.60999 14.1251 7.77476 11.8751 7.77476C9.62508 7.77476 7.77509 9.60999 7.77509 11.8748ZM17.2661 22.2658L22.2661 17.2658C22.8239 16.708 22.8239 15.7915 22.2661 15.2337C21.7084 14.6759 20.7918 14.6759 20.234 15.2337L15.234 20.2337C14.6763 20.7915 14.6763 21.708 15.234 22.2658C15.5202 22.552 15.8871 22.6873 16.2501 22.6873C16.613 22.6873 16.9799 22.552 17.2661 22.2658Z" fill="#E72128" stroke="#E72128"/>
</svg>
