<svg width="30" height="30" viewBox="0 0 30 30" fill="none" xmlns="http://www.w3.org/2000/svg">
<g id="vuesax/linear/tag-2">
<g id="tag-2">
<path id="Vector" d="M5.50595 19.408L11.1684 25.0705C13.4934 27.3955 17.2684 27.3955 19.6059 25.0705L25.0934 19.583C27.4184 17.258 27.4184 13.483 25.0934 11.1455L19.4184 5.49546C18.2309 4.30796 16.5934 3.67046 14.9184 3.75796L8.66844 4.05796C6.16844 4.17046 4.18094 6.15796 4.05594 8.64546L3.75594 14.8955C3.68094 16.583 4.31845 18.2205 5.50595 19.408Z" stroke="#BDBDBD" stroke-width="1.5" stroke-linecap="round" stroke-linejoin="round"/>
<path id="Vector_2" d="M12.1685 15.2832C13.8943 15.2832 15.2935 13.8841 15.2935 12.1582C15.2935 10.4323 13.8943 9.0332 12.1685 9.0332C10.4426 9.0332 9.04346 10.4323 9.04346 12.1582C9.04346 13.8841 10.4426 15.2832 12.1685 15.2832Z" stroke="#BDBDBD" stroke-width="1.5" stroke-linecap="round"/>
<path id="Vector_3" d="M16.5435 21.5332L21.5435 16.5332" stroke="#BDBDBD" stroke-width="1.5" stroke-miterlimit="10" stroke-linecap="round" stroke-linejoin="round"/>
</g>
</g>
</svg>
