<svg width="22" height="23" viewBox="0 0 22 23" fill="none" xmlns="http://www.w3.org/2000/svg">
<path d="M13.1919 8.68058L12.9151 16.2958M9.0847 16.2958L8.8079 8.68058M16.7823 5.9645C17.0559 6.00849 17.3279 6.05503 17.5999 6.10495M16.7823 5.9645L15.9279 17.7113C15.893 18.1896 15.6888 18.6363 15.3559 18.9621C15.0231 19.288 14.5862 19.4689 14.1327 19.4688H7.8671C7.41358 19.4689 6.97672 19.288 6.64389 18.9621C6.31105 18.6363 6.10677 18.1896 6.0719 17.7113L5.2175 5.9645M16.7823 5.9645C15.859 5.81686 14.9309 5.70481 13.9999 5.62858M5.2175 5.9645C4.9439 6.00765 4.6719 6.05419 4.3999 6.10411M5.2175 5.9645C6.14081 5.81686 7.06889 5.70482 7.9999 5.62858M13.9999 5.62858V4.85353C13.9999 3.85509 13.2719 3.0225 12.3279 2.99119C11.4428 2.96127 10.557 2.96127 9.6719 2.99119C8.7279 3.0225 7.9999 3.85594 7.9999 4.85353V5.62858M13.9999 5.62858C12.0029 5.46534 9.99692 5.46534 7.9999 5.62858" stroke="#E72128" stroke-width="1.2" stroke-linecap="round" stroke-linejoin="round"/>
</svg>
