<svg width="31" height="30" viewBox="0 0 31 30" fill="none" xmlns="http://www.w3.org/2000/svg">
<g id="home">
<path id="Vector" d="M26.5375 10.0125L18.35 3.46252C16.75 2.18752 14.25 2.17502 12.6625 3.45002L4.47495 10.0125C3.29995 10.95 2.58745 12.825 2.83745 14.3L4.41245 23.725C4.77495 25.8375 6.73745 27.5 8.87495 27.5H22.125C24.2375 27.5 26.2375 25.8 26.6 23.7125L28.175 14.2875C28.4 12.825 27.6875 10.95 26.5375 10.0125ZM16.4375 22.5C16.4375 23.0125 16.0125 23.4375 15.5 23.4375C14.9875 23.4375 14.5625 23.0125 14.5625 22.5V18.75C14.5625 18.2375 14.9875 17.8125 15.5 17.8125C16.0125 17.8125 16.4375 18.2375 16.4375 18.75V22.5Z" fill="#E72128"/>
</g>
</svg>
