<svg width="31" height="30" viewBox="0 0 31 30" fill="none" xmlns="http://www.w3.org/2000/svg">
<path d="M10.0625 8.4375C10.0625 5.43864 12.5011 3 15.5 3C18.4985 3 20.937 5.43812 20.9375 8.43653C20.9255 11.3786 18.6293 13.7551 15.7035 13.8625H15.7035H15.7035H15.7034H15.7034H15.7033H15.7033H15.7033H15.7032H15.7032H15.7031H15.7031H15.7031H15.703H15.703H15.7029H15.7029H15.7029H15.7028H15.7028H15.7027H15.7027H15.7027H15.7026H15.7026H15.7025H15.7025H15.7025H15.7024H15.7024H15.7024H15.7023H15.7023H15.7022H15.7022H15.7022H15.7021H15.7021H15.702H15.702H15.702H15.7019H15.7019H15.7019H15.7018H15.7018H15.7017H15.7017H15.7017H15.7016H15.7016H15.7016H15.7015H15.7015H15.7014H15.7014H15.7014H15.7013H15.7013H15.7013H15.7012H15.7012H15.7011H15.7011H15.7011H15.701H15.701H15.701H15.7009H15.7009H15.7008H15.7008H15.7008H15.7007H15.7007H15.7007H15.7006H15.7006H15.7005H15.7005H15.7005H15.7004H15.7004H15.7004H15.7003H15.7003H15.7003H15.7002H15.7002H15.7001H15.7001H15.7001H15.7H15.7H15.7H15.6999H15.6999H15.6999H15.6998H15.6998H15.6997H15.6997H15.6997H15.6996H15.6996H15.6996H15.6995H15.6995H15.6995H15.6994H15.6994H15.6993H15.6993H15.6993H15.6992H15.6992H15.6992H15.6991H15.6991H15.699H15.699H15.699H15.6989H15.6989H15.6989H15.6988H15.6988H15.6987H15.6987H15.6987H15.6986H15.6986H15.6986H15.6985H15.6985H15.6984H15.6984H15.6984H15.6983H15.6983H15.6983H15.6982H15.6982H15.6981H15.6981H15.6981H15.698H15.698H15.698H15.6979H15.6979H15.6978H15.6978H15.6978H15.6977H15.6977H15.6976H15.6976H15.6976H15.6975H15.6975H15.6975H15.6974H15.6974H15.6973H15.6973H15.6973H15.6972H15.6972H15.6971H15.6971H15.6971H15.697H15.697H15.6969H15.6969H15.6969H15.6968H15.6968H15.6967H15.6967H15.6967H15.6966H15.6966H15.6965H15.6965H15.6964H15.6964H15.6964H15.6963H15.6963H15.6962H15.6962H15.6962H15.6961H15.6961H15.696H15.696H15.6959H15.6959H15.6959H15.6958H15.6958H15.6957H15.6957H15.6956H15.6956H15.6955H15.6955H15.6955H15.6954H15.6954H15.6953H15.6953H15.6952H15.6952H15.6951H15.6951H15.6951H15.695H15.695H15.6949H15.6949H15.6948H15.6948H15.6947H15.6947H15.6946H15.6946H15.6946H15.6945H15.6945H15.6944H15.6944H15.6943H15.6943H15.6942H15.6942H15.6941H15.6941H15.694H15.694H15.6939H15.6939H15.6938H15.6938H15.6937H15.6937H15.6936H15.6936H15.6935H15.6935H15.6934H15.6934H15.6933H15.6933H15.6932H15.6932H15.6931H15.6931H15.693H15.693H15.6929H15.6929H15.6928H15.6928H15.6927H15.6926H15.6926H15.6925H15.6925H15.6924H15.6924H15.6923H15.6923H15.6922H15.6922H15.6921H15.692H15.692H15.6919H15.6919H15.6918H15.6918H15.6917H15.6916H15.6916H15.6915H15.6915H15.6914H15.6914H15.6913H15.6912H15.6912H15.6911H15.6911H15.691H15.6909H15.6909H15.6908H15.6908H15.6907H15.6906H15.6906H15.6905H15.6905H15.6904H15.6903H15.6903H15.6902H15.6901H15.6901H15.69H15.69H15.6899H15.6898H15.6898H15.6897H15.6896H15.6896H15.6895H15.6894H15.6894H15.6893H15.6892H15.6892H15.6891H15.689H15.689H15.6889H15.6888H15.6888H15.6887H15.6886H15.6886H15.6885H15.6884H15.6884H15.6883H15.6882H15.6881H15.6881H15.688H15.6879H15.6879H15.6878H15.6877H15.6876H15.6876H15.6875H15.6874H15.6872H15.6871H15.6869H15.6868H15.6866H15.6865H15.6863H15.6862H15.686H15.6859H15.6858H15.6856H15.6855H15.6853H15.6852H15.685H15.6849H15.6848H15.6846H15.6845H15.6843H15.6842H15.6841H15.6839H15.6838H15.6836H15.6835H15.6834H15.6832H15.6831H15.683H15.6828H15.6827H15.6825H15.6824H15.6823H15.6821H15.682H15.6819H15.6817H15.6816H15.6815H15.6813H15.6812H15.681H15.6809H15.6808H15.6806H15.6805H15.6804H15.6802H15.6801H15.68H15.6798H15.6797H15.6796H15.6794H15.6793H15.6792H15.6791H15.6789H15.6788H15.6787H15.6785H15.6784H15.6783H15.6781H15.678H15.6779H15.6778H15.6776H15.6775H15.6774H15.6772H15.6771H15.677H15.6769H15.6767H15.6766H15.6765H15.6763H15.6762H15.6761H15.676H15.6758H15.6757H15.6756H15.6755H15.6753H15.6752H15.6751H15.675H15.6748H15.6747H15.6746H15.6745H15.6743H15.6742H15.6741H15.674H15.6738H15.6737H15.6736H15.6735H15.6734H15.6732H15.6731H15.673H15.6729H15.6727H15.6726H15.6725H15.6724H15.6723H15.6721H15.672H15.6719H15.6718H15.6717H15.6715H15.6714H15.6713H15.6712H15.6711H15.6709H15.6708H15.6707H15.6706H15.6705H15.6703H15.6702H15.6701H15.67H15.6699H15.6698H15.6696H15.6695H15.6694H15.6693H15.6692H15.6691H15.6689H15.6688H15.6687H15.6686H15.6685H15.6683H15.6682H15.6681H15.668H15.6679H15.6678H15.6677H15.6675H15.6674H15.6673H15.6672H15.6671H15.667H15.6668H15.6667H15.6666H15.6665H15.6664H15.6663H15.6662H15.666H15.6659H15.6658H15.6657H15.6656H15.6655H15.6654H15.6652H15.6651H15.665H15.6649H15.6648H15.6647H15.6646H15.6645H15.6643H15.6642H15.6641H15.664H15.6639H15.6638H15.6637H15.6636H15.6634H15.6633H15.6632H15.6631H15.663H15.6629H15.6628H15.6627H15.6625H15.6624H15.6623H15.6622H15.6621H15.662H15.6619H15.6618H15.6617H15.6615H15.6614H15.6613H15.6612H15.6611H15.661H15.6609H15.6608H15.6607H15.6605H15.6604H15.6603H15.6602H15.6601H15.66H15.6599H15.6598C15.5523 13.8494 15.4379 13.8509 15.3316 13.8615C12.3399 13.7407 10.0625 11.3654 10.0625 8.4375Z" fill="#E72128" stroke="#E72128"/>
<path d="M9.42891 25.322L9.42755 25.3211C7.95359 24.3385 7.2002 23.0539 7.2002 21.7246C7.2002 20.395 7.95394 19.0982 9.43972 18.1033C11.0975 17.0064 13.2957 16.4434 15.5158 16.4434C17.7365 16.4434 19.9282 17.0067 21.5728 18.1031C23.0432 19.0834 23.7886 20.3676 23.8002 21.7016C23.7995 23.043 23.0456 24.3273 21.5712 25.3222C19.9203 26.4305 17.723 26.9996 15.5002 26.9996C13.2772 26.9996 11.0798 26.4305 9.42891 25.322Z" fill="#E72128" stroke="#E72128"/>
</svg>
